<svg width="97" height="53" viewBox="0 0 97 53" fill="none" xmlns="http://www.w3.org/2000/svg">
<path fill-rule="evenodd" clip-rule="evenodd" d="M53.6 50.676C59.9865 53.6811 68.7985 51.6218 76.2935 48.2149C83.2851 45.0319 91.2326 39.7132 95.2801 32.9778C97.8429 28.7046 97.2734 24.1099 95.2547 20.069H87.5156C82.7359 20.069 80.341 22.465 80.341 27.2554V38.5386H77.2647V27.2554C77.2647 20.4123 80.6817 16.9948 87.5156 16.9948H93.3784C92.8445 16.2519 92.2649 15.54 91.6598 14.8678C89.875 12.8832 87.1851 11.0074 84.8614 9.2262C82.619 7.50906 80.1884 6.15856 76.9545 4.6504C71.3917 2.04953 62.5493 -0.325088 56.178 1.56697C52.4305 2.6785 50.9407 4.46835 49.2169 7.15109C48.8508 7.15109 46.6999 11.5784 45.9423 16.3312C44.5643 24.9423 44.2135 46.2573 53.6 50.676ZM71.107 38.5386V25.4503L68.0256 26.1718V31.3593C68.0256 36.1431 65.6307 38.5386 60.8408 38.5386H53.661C48.8712 38.5386 46.4813 36.4863 46.4813 32.3819C46.4813 29.3986 47.5186 27.6896 49.5983 27.2549L52.2576 26.6498L64.9239 23.7504C64.7968 21.2965 63.434 20.069 60.8408 20.069H53.661C50.9203 20.069 49.5576 21.4414 49.5576 24.1735H46.4813C46.4813 19.3897 48.8712 16.9943 53.661 16.9943H60.8408C65.2391 16.9943 67.6188 19.015 67.9748 23.0518L74.1833 21.6311V38.5386H71.107ZM14.3453 17.7504C18.7488 18.9133 21.7386 22.6811 21.7386 27.6271C21.7386 33.617 17.3555 37.9177 11.386 37.9177C5.41134 37.9177 0.992676 33.617 0.992676 27.6271C0.992676 23.1332 3.47911 19.6114 7.24695 18.1328V20.8887C5.13167 22.2052 3.78423 24.591 3.78423 27.6271C3.78423 32.3499 7.04356 35.4984 11.386 35.4984C15.7284 35.4984 18.9471 32.3499 18.9471 27.6271C18.9471 24.0632 17.1114 21.3957 14.3453 20.3014V17.7504ZM35.0405 17.3751C31.5116 17.3751 28.7557 18.7958 27.2811 21.2533V17.5287H24.6471V37.7255H27.398V27.1278C27.398 22.5204 30.154 19.8326 34.532 19.8326C38.4117 19.8326 40.6592 22.0211 40.6592 26.2832V37.7255H43.4152V26.0147C43.4152 20.2165 40.0033 17.3751 35.0405 17.3751ZM60.8408 35.4572C63.5764 35.4572 64.9442 34.0909 64.9442 31.3593V26.9468L50.3966 30.288C49.8372 30.4837 49.5576 30.8341 49.5576 31.3593C49.5576 34.0909 50.9203 35.4572 53.661 35.4572H60.8408ZM12.5606 15.0575C12.5606 14.5866 12.3724 14.1351 12.0369 13.8025C11.7063 13.4695 11.2538 13.2829 10.7859 13.2829H10.7809C10.3131 13.2829 9.86053 13.4695 9.52493 13.8025C9.19442 14.1351 9.00627 14.5866 9.00627 15.0575V26.6655C9.00627 27.1364 9.19442 27.5874 9.52493 27.9205C9.86053 28.253 10.3131 28.4402 10.7809 28.4402H10.7859C11.2538 28.4402 11.7063 28.253 12.0369 27.9205C12.3724 27.5874 12.5606 27.1364 12.5606 26.6655V15.0575ZM72.6426 18.535C71.2748 18.535 70.5884 17.8485 70.5884 16.4827C70.5884 15.1098 71.2748 14.4305 72.6426 14.4305C74.0155 14.4305 74.6918 15.1098 74.6918 16.4827C74.6918 17.8485 74.0155 18.535 72.6426 18.535Z" fill="white"/>
</svg>
